<svg width="1023" height="1011" viewBox="0 0 1023 1011" fill="none" xmlns="http://www.w3.org/2000/svg">
<g clip-path="url(#clip0_107_134070)">
<line x1="-1142.23" y1="724.645" x2="801.267" y2="-406.496" stroke="#282828"/>
<line x1="-1116.37" y1="769.069" x2="827.122" y2="-362.072" stroke="#282828"/>
<line x1="-1090.52" y1="813.493" x2="852.977" y2="-317.648" stroke="#282828"/>
<line x1="-1064.66" y1="857.917" x2="878.832" y2="-273.224" stroke="#282828"/>
<line x1="-1038.81" y1="902.34" x2="904.688" y2="-228.801" stroke="#282828"/>
<line x1="-1012.95" y1="946.764" x2="930.543" y2="-184.377" stroke="#282828"/>
<line x1="-987.097" y1="991.188" x2="956.398" y2="-139.953" stroke="#282828"/>
<line x1="-961.241" y1="1035.61" x2="982.253" y2="-95.5294" stroke="#282828"/>
<line x1="-935.386" y1="1080.04" x2="1008.11" y2="-51.1057" stroke="#282828"/>
<line x1="-909.531" y1="1124.46" x2="1033.96" y2="-6.68197" stroke="#282828"/>
<line x1="-883.676" y1="1168.88" x2="1059.82" y2="37.7418" stroke="#282828"/>
<line x1="-857.82" y1="1213.31" x2="1085.67" y2="82.1656" stroke="#282828"/>
<line x1="-831.965" y1="1257.73" x2="1111.53" y2="126.589" stroke="#282828"/>
<line x1="-806.11" y1="1302.15" x2="1137.38" y2="171.013" stroke="#282828"/>
<line x1="-780.255" y1="1346.58" x2="1163.24" y2="215.437" stroke="#282828"/>
<line x1="-754.399" y1="1391" x2="1189.1" y2="259.861" stroke="#282828"/>
<line x1="-728.544" y1="1435.43" x2="1214.95" y2="304.284" stroke="#282828"/>
<line x1="-702.689" y1="1479.85" x2="1240.81" y2="348.708" stroke="#282828"/>
<line x1="-676.834" y1="1524.27" x2="1266.66" y2="393.132" stroke="#282828"/>
<line x1="-650.979" y1="1568.7" x2="1292.52" y2="437.556" stroke="#282828"/>
<line x1="-625.123" y1="1613.12" x2="1318.37" y2="481.979" stroke="#282828"/>
<line x1="-599.268" y1="1657.54" x2="1344.23" y2="526.403" stroke="#282828"/>
<line x1="-573.413" y1="1701.97" x2="1370.08" y2="570.827" stroke="#282828"/>
<line x1="-547.558" y1="1746.39" x2="1395.94" y2="615.251" stroke="#282828"/>
<line x1="-521.702" y1="1790.82" x2="1421.79" y2="659.674" stroke="#282828"/>
<line x1="-495.847" y1="1835.24" x2="1447.65" y2="704.098" stroke="#282828"/>
<line x1="108.886" y1="-472.432" x2="2052.38" y2="658.709" stroke="#282828"/>
<line x1="83.0306" y1="-428.008" x2="2026.53" y2="703.132" stroke="#282828"/>
<line x1="57.1753" y1="-383.585" x2="2000.67" y2="747.556" stroke="#282828"/>
<line x1="31.3201" y1="-339.161" x2="1974.81" y2="791.98" stroke="#282828"/>
<line x1="5.46489" y1="-294.737" x2="1948.96" y2="836.404" stroke="#282828"/>
<line x1="-20.3903" y1="-250.313" x2="1923.1" y2="880.827" stroke="#282828"/>
<line x1="-46.2456" y1="-205.89" x2="1897.25" y2="925.251" stroke="#282828"/>
<line x1="-72.1008" y1="-161.466" x2="1871.39" y2="969.675" stroke="#282828"/>
<line x1="-97.956" y1="-117.042" x2="1845.54" y2="1014.1" stroke="#282828"/>
<line x1="-123.811" y1="-72.6185" x2="1819.68" y2="1058.52" stroke="#282828"/>
<line x1="-149.666" y1="-28.1948" x2="1793.83" y2="1102.95" stroke="#282828"/>
<line x1="-175.522" y1="16.2289" x2="1767.97" y2="1147.37" stroke="#282828"/>
<line x1="-201.377" y1="60.6527" x2="1742.12" y2="1191.79" stroke="#282828"/>
<line x1="-227.232" y1="105.076" x2="1716.26" y2="1236.22" stroke="#282828"/>
<line x1="-253.087" y1="149.5" x2="1690.41" y2="1280.64" stroke="#282828"/>
<line x1="-278.943" y1="193.924" x2="1664.55" y2="1325.06" stroke="#282828"/>
<line x1="-304.798" y1="238.348" x2="1638.7" y2="1369.49" stroke="#282828"/>
<line x1="-330.653" y1="282.771" x2="1612.84" y2="1413.91" stroke="#282828"/>
<line x1="-356.508" y1="327.195" x2="1586.99" y2="1458.34" stroke="#282828"/>
<line x1="-382.364" y1="371.619" x2="1561.13" y2="1502.76" stroke="#282828"/>
<line x1="-408.219" y1="416.043" x2="1535.28" y2="1547.18" stroke="#282828"/>
<line x1="-434.074" y1="460.466" x2="1509.42" y2="1591.61" stroke="#282828"/>
<line x1="-459.929" y1="504.89" x2="1483.57" y2="1636.03" stroke="#282828"/>
<line x1="-485.785" y1="549.314" x2="1457.71" y2="1680.45" stroke="#282828"/>
<line x1="-511.64" y1="593.738" x2="1431.85" y2="1724.88" stroke="#282828"/>
<line x1="-537.495" y1="638.161" x2="1406" y2="1769.3" stroke="#282828"/>
</g>
<defs>
<clipPath id="clip0_107_134070">
<rect width="1023" height="1011" fill="white"/>
</clipPath>
</defs>
</svg>
